<?xml version="1.0" encoding="UTF-8"?><svg id="Integrated" xmlns="http://www.w3.org/2000/svg" viewBox="0 0 1000 1000"><defs><style>.cls-1{fill:#fff;}</style></defs><path d="M500,308c25.86,0,50.94,5.06,74.54,15.04,22.8,9.64,43.28,23.45,60.87,41.05,17.59,17.59,31.4,38.07,41.05,60.87,9.98,23.6,15.04,48.68,15.04,74.54s-5.06,50.94-15.04,74.54c-9.64,22.8-23.45,43.28-41.05,60.87-17.59,17.59-38.07,31.4-60.87,41.05-23.6,9.98-48.68,15.04-74.54,15.04s-50.94-5.06-74.54-15.04c-22.8-9.64-43.28-23.45-60.87-41.05-17.59-17.59-31.4-38.07-41.05-60.87-9.98-23.6-15.04-48.68-15.04-74.54s5.06-50.94,15.04-74.54c9.64-22.8,23.45-43.28,41.05-60.87,17.59-17.59,38.07-31.4,60.87-41.05,23.6-9.98,48.68-15.04,74.54-15.04m0-14c-113.49,0-205.5,92.01-205.5,205.5s92.01,205.5,205.5,205.5,205.5-92.01,205.5-205.5-92.01-205.5-205.5-205.5h0Z"/><g><circle class="cls-1" cx="499.5" cy="309.5" r="110.5"/><g><path d="M544.73,324.99c5.25-8.25,8.3-18.03,8.3-28.51,0-29.38-23.9-53.28-53.28-53.28s-53.28,23.9-53.28,53.28c0,10.48,3.05,20.26,8.3,28.51-16.99,3.07-29.92,17.95-29.92,35.81v10.27c0,3.62,2.94,6.55,6.56,6.55s6.55-2.94,6.55-6.55v-10.27c0-12.84,10.45-23.29,23.29-23.29h4.51c4.03,3.35,8.5,6.04,13.26,8.05,0,0,0,0,.01,0,2.35,1,4.78,1.82,7.26,2.47,.24,.06,.49,.12,.73,.18,.55,.14,1.11,.27,1.66,.39,.32,.07,.64,.13,.96,.19,.49,.09,.99,.18,1.49,.27,.34,.06,.69,.11,1.03,.16,.5,.07,.99,.13,1.49,.19,.34,.04,.68,.08,1.02,.11,.55,.05,1.1,.09,1.65,.13,.29,.02,.58,.04,.87,.06,.85,.04,1.7,.06,2.55,.06s1.7-.02,2.55-.06c.29-.01,.58-.04,.87-.06,.55-.04,1.1-.07,1.65-.13,.34-.03,.68-.07,1.02-.11,.5-.06,.99-.12,1.49-.19,.35-.05,.7-.1,1.04-.16,.49-.08,.99-.17,1.48-.26,.33-.06,.65-.12,.97-.19,.55-.12,1.1-.25,1.64-.38,.25-.06,.5-.12,.75-.18,2.47-.64,4.89-1.47,7.24-2.46,.02,0,.04-.02,.06-.03,.77-.33,1.54-.68,2.3-1.04,.01,0,.02-.01,.03-.02,3.87-1.86,7.53-4.19,10.89-6.98h4.51c12.84,0,23.29,10.45,23.29,23.29v10.27c0,3.62,2.93,6.55,6.55,6.55s6.55-2.94,6.55-6.55v-10.27c0-17.86-12.93-32.75-29.92-35.81Zm-27.55,7.68s-.05,.02-.07,.04c-.53,.26-1.07,.5-1.62,.73-.1,.04-.21,.09-.31,.13-.47,.2-.94,.38-1.41,.56-.17,.06-.34,.12-.5,.18-.42,.15-.83,.29-1.26,.43-.22,.07-.44,.14-.66,.2-.38,.11-.76,.22-1.14,.33-.26,.07-.51,.14-.77,.2-.36,.09-.71,.17-1.07,.25-.28,.06-.56,.12-.84,.18-.35,.07-.7,.13-1.05,.19-.29,.05-.58,.1-.87,.14-.36,.05-.73,.1-1.09,.14-.28,.03-.56,.07-.84,.1-.41,.04-.82,.07-1.23,.09-.24,.02-.48,.04-.72,.05-.65,.03-1.31,.05-1.97,.05s-1.32-.02-1.97-.05c-.24-.01-.48-.03-.72-.05-.41-.03-.82-.06-1.23-.09-.28-.03-.56-.07-.84-.1-.37-.04-.73-.09-1.09-.14-.29-.04-.57-.09-.86-.14-.35-.06-.71-.12-1.06-.19-.28-.05-.55-.12-.83-.18-.36-.08-.72-.16-1.08-.25-.25-.06-.51-.13-.76-.2-.39-.1-.77-.21-1.15-.33-.21-.06-.43-.13-.64-.2-.43-.14-.85-.28-1.27-.43-.16-.06-.32-.12-.49-.18-.48-.18-.96-.37-1.44-.57-.1-.04-.19-.08-.29-.12-.55-.24-1.1-.49-1.65-.75-.02,0-.03-.01-.04-.02-13.45-6.5-22.76-20.28-22.76-36.2,0-22.15,18.02-40.17,40.17-40.17s40.17,18.02,40.17,40.17c0,15.91-9.3,29.69-22.75,36.19Z"/><path d="M531.03,359.25c-3.62,0-6.55,2.94-6.55,6.55v29.02c0,3.62,2.93,6.55,6.55,6.55s6.55-2.94,6.55-6.55v-29.02c0-3.62-2.93-6.55-6.55-6.55Z"/><path d="M468.47,359.25c-3.62,0-6.55,2.94-6.55,6.55v29.02c0,3.62,2.94,6.55,6.55,6.55s6.55-2.94,6.55-6.55v-29.02c0-3.62-2.94-6.55-6.55-6.55Z"/></g><path d="M499.75,205c57.62,0,104.5,46.88,104.5,104.5s-46.88,104.5-104.5,104.5-104.5-46.88-104.5-104.5,46.88-104.5,104.5-104.5m0-12c-64.34,0-116.5,52.16-116.5,116.5s52.16,116.5,116.5,116.5,116.5-52.16,116.5-116.5-52.16-116.5-116.5-116.5h0Z"/></g><g><circle class="cls-1" cx="319.75" cy="588.5" r="110.5"/><g><path d="M364.98,603.99c5.25-8.25,8.3-18.03,8.3-28.51,0-29.38-23.9-53.28-53.28-53.28s-53.28,23.9-53.28,53.28c0,10.48,3.05,20.26,8.3,28.51-16.99,3.07-29.92,17.95-29.92,35.81v10.27c0,3.62,2.94,6.55,6.56,6.55s6.55-2.94,6.55-6.55v-10.27c0-12.84,10.45-23.29,23.29-23.29h4.51c4.03,3.35,8.5,6.04,13.26,8.05,0,0,0,0,.01,0,2.35,1,4.78,1.82,7.26,2.47,.24,.06,.49,.12,.73,.18,.55,.14,1.11,.27,1.66,.39,.32,.07,.64,.13,.96,.19,.49,.09,.99,.18,1.49,.27,.34,.06,.69,.11,1.03,.16,.5,.07,.99,.13,1.49,.19,.34,.04,.68,.08,1.02,.11,.55,.05,1.1,.09,1.65,.13,.29,.02,.58,.04,.87,.06,.85,.04,1.7,.06,2.55,.06s1.7-.02,2.55-.06c.29-.01,.58-.04,.87-.06,.55-.04,1.1-.07,1.65-.13,.34-.03,.68-.07,1.02-.11,.5-.06,.99-.12,1.49-.19,.35-.05,.7-.1,1.04-.16,.49-.08,.99-.17,1.48-.26,.33-.06,.65-.12,.97-.19,.55-.12,1.1-.25,1.64-.38,.25-.06,.5-.12,.75-.18,2.47-.64,4.89-1.47,7.24-2.46,.02,0,.04-.02,.06-.03,.77-.33,1.54-.68,2.3-1.04,.01,0,.02-.01,.03-.02,3.87-1.86,7.53-4.19,10.89-6.98h4.51c12.84,0,23.29,10.45,23.29,23.29v10.27c0,3.62,2.93,6.55,6.55,6.55s6.55-2.94,6.55-6.55v-10.27c0-17.86-12.93-32.75-29.92-35.81Zm-27.55,7.68s-.05,.02-.07,.04c-.53,.26-1.07,.5-1.62,.73-.1,.04-.21,.09-.31,.13-.47,.2-.94,.38-1.41,.56-.17,.06-.34,.12-.5,.18-.42,.15-.83,.29-1.26,.43-.22,.07-.44,.14-.66,.2-.38,.11-.76,.22-1.14,.33-.26,.07-.51,.14-.77,.2-.36,.09-.71,.17-1.07,.25-.28,.06-.56,.12-.84,.18-.35,.07-.7,.13-1.05,.19-.29,.05-.58,.1-.87,.14-.36,.05-.73,.1-1.09,.14-.28,.03-.56,.07-.84,.1-.41,.04-.82,.07-1.23,.09-.24,.02-.48,.04-.72,.05-.65,.03-1.31,.05-1.97,.05s-1.32-.02-1.97-.05c-.24-.01-.48-.03-.72-.05-.41-.03-.82-.06-1.23-.09-.28-.03-.56-.07-.84-.1-.37-.04-.73-.09-1.09-.14-.29-.04-.57-.09-.86-.14-.35-.06-.71-.12-1.06-.19-.28-.05-.55-.12-.83-.18-.36-.08-.72-.16-1.08-.25-.25-.06-.51-.13-.76-.2-.39-.1-.77-.21-1.15-.33-.21-.06-.43-.13-.64-.2-.43-.14-.85-.28-1.27-.43-.16-.06-.32-.12-.49-.18-.48-.18-.96-.37-1.44-.57-.1-.04-.19-.08-.29-.12-.55-.24-1.1-.49-1.65-.75-.02,0-.03-.01-.04-.02-13.45-6.5-22.76-20.28-22.76-36.2,0-22.15,18.02-40.17,40.17-40.17s40.17,18.02,40.17,40.17c0,15.91-9.3,29.69-22.75,36.19Z"/><path d="M351.28,638.25c-3.62,0-6.55,2.94-6.55,6.55v29.02c0,3.62,2.93,6.55,6.55,6.55s6.55-2.94,6.55-6.55v-29.02c0-3.62-2.93-6.55-6.55-6.55Z"/><path d="M288.72,638.25c-3.62,0-6.55,2.94-6.55,6.55v29.02c0,3.62,2.94,6.55,6.55,6.55s6.55-2.94,6.55-6.55v-29.02c0-3.62-2.94-6.55-6.55-6.55Z"/></g><path d="M320,484c57.62,0,104.5,46.88,104.5,104.5s-46.88,104.5-104.5,104.5-104.5-46.88-104.5-104.5,46.88-104.5,104.5-104.5m0-12c-64.34,0-116.5,52.16-116.5,116.5s52.16,116.5,116.5,116.5,116.5-52.16,116.5-116.5-52.16-116.5-116.5-116.5h0Z"/></g><g><circle class="cls-1" cx="679.75" cy="588.5" r="110.5"/><g><path d="M724.98,603.99c5.25-8.25,8.3-18.03,8.3-28.51,0-29.38-23.9-53.28-53.28-53.28s-53.28,23.9-53.28,53.28c0,10.48,3.05,20.26,8.3,28.51-16.99,3.07-29.92,17.95-29.92,35.81v10.27c0,3.62,2.94,6.55,6.56,6.55s6.55-2.94,6.55-6.55v-10.27c0-12.84,10.45-23.29,23.29-23.29h4.51c4.03,3.35,8.5,6.04,13.26,8.05,0,0,0,0,.01,0,2.35,1,4.78,1.82,7.26,2.47,.24,.06,.49,.12,.73,.18,.55,.14,1.11,.27,1.66,.39,.32,.07,.64,.13,.96,.19,.49,.09,.99,.18,1.49,.27,.34,.06,.69,.11,1.03,.16,.5,.07,.99,.13,1.49,.19,.34,.04,.68,.08,1.02,.11,.55,.05,1.1,.09,1.65,.13,.29,.02,.58,.04,.87,.06,.85,.04,1.7,.06,2.55,.06s1.7-.02,2.55-.06c.29-.01,.58-.04,.87-.06,.55-.04,1.1-.07,1.65-.13,.34-.03,.68-.07,1.02-.11,.5-.06,.99-.12,1.49-.19,.35-.05,.7-.1,1.04-.16,.49-.08,.99-.17,1.48-.26,.33-.06,.65-.12,.97-.19,.55-.12,1.1-.25,1.64-.38,.25-.06,.5-.12,.75-.18,2.47-.64,4.89-1.47,7.24-2.46,.02,0,.04-.02,.06-.03,.77-.33,1.54-.68,2.3-1.04,.01,0,.02-.01,.03-.02,3.87-1.86,7.53-4.19,10.89-6.98h4.51c12.84,0,23.29,10.45,23.29,23.29v10.27c0,3.62,2.93,6.55,6.55,6.55s6.55-2.94,6.55-6.55v-10.27c0-17.86-12.93-32.75-29.92-35.81Zm-27.55,7.68s-.05,.02-.07,.04c-.53,.26-1.07,.5-1.62,.73-.1,.04-.21,.09-.31,.13-.47,.2-.94,.38-1.41,.56-.17,.06-.34,.12-.5,.18-.42,.15-.83,.29-1.26,.43-.22,.07-.44,.14-.66,.2-.38,.11-.76,.22-1.14,.33-.26,.07-.51,.14-.77,.2-.36,.09-.71,.17-1.07,.25-.28,.06-.56,.12-.84,.18-.35,.07-.7,.13-1.05,.19-.29,.05-.58,.1-.87,.14-.36,.05-.73,.1-1.09,.14-.28,.03-.56,.07-.84,.1-.41,.04-.82,.07-1.23,.09-.24,.02-.48,.04-.72,.05-.65,.03-1.31,.05-1.97,.05s-1.32-.02-1.97-.05c-.24-.01-.48-.03-.72-.05-.41-.03-.82-.06-1.23-.09-.28-.03-.56-.07-.84-.1-.37-.04-.73-.09-1.09-.14-.29-.04-.57-.09-.86-.14-.35-.06-.71-.12-1.06-.19-.28-.05-.55-.12-.83-.18-.36-.08-.72-.16-1.08-.25-.25-.06-.51-.13-.76-.2-.39-.1-.77-.21-1.15-.33-.21-.06-.43-.13-.64-.2-.43-.14-.85-.28-1.27-.43-.16-.06-.32-.12-.49-.18-.48-.18-.96-.37-1.44-.57-.1-.04-.19-.08-.29-.12-.55-.24-1.1-.49-1.65-.75-.02,0-.03-.01-.04-.02-13.45-6.5-22.76-20.28-22.76-36.2,0-22.15,18.02-40.17,40.17-40.17s40.17,18.02,40.17,40.17c0,15.91-9.3,29.69-22.75,36.19Z"/><path d="M711.28,638.25c-3.62,0-6.55,2.94-6.55,6.55v29.02c0,3.62,2.93,6.55,6.55,6.55s6.55-2.94,6.55-6.55v-29.02c0-3.62-2.93-6.55-6.55-6.55Z"/><path d="M648.72,638.25c-3.62,0-6.55,2.94-6.55,6.55v29.02c0,3.62,2.94,6.55,6.55,6.55s6.55-2.94,6.55-6.55v-29.02c0-3.62-2.94-6.55-6.55-6.55Z"/></g><path d="M680,484c57.62,0,104.5,46.88,104.5,104.5s-46.88,104.5-104.5,104.5-104.5-46.88-104.5-104.5,46.88-104.5,104.5-104.5m0-12c-64.34,0-116.5,52.16-116.5,116.5s52.16,116.5,116.5,116.5,116.5-52.16,116.5-116.5-52.16-116.5-116.5-116.5h0Z"/></g><path d="M705.36,373.06h8.5v8.51c0,3.62,2.93,6.55,6.55,6.55s6.55-2.94,6.55-6.55v-8.51h8.51c3.62,0,6.55-2.94,6.55-6.55s-2.93-6.55-6.55-6.55h-8.51v-8.5c0-3.62-2.93-6.55-6.55-6.55s-6.55,2.94-6.55,6.55v8.5h-8.5c-3.62,0-6.55,2.94-6.55,6.55s2.93,6.55,6.55,6.55Z"/><path d="M264.52,373.06h8.51v8.51c0,3.62,2.94,6.55,6.55,6.55s6.55-2.94,6.55-6.55v-8.51h8.51c3.62,0,6.55-2.94,6.55-6.55s-2.94-6.55-6.55-6.55h-8.51v-8.5c0-3.62-2.94-6.55-6.55-6.55s-6.55,2.94-6.55,6.55v8.5h-8.51c-3.62,0-6.55,2.94-6.55,6.55s2.93,6.55,6.55,6.55Z"/><path d="M515.06,748.94h-8.51v-8.51c0-3.62-2.93-6.55-6.55-6.55s-6.55,2.94-6.55,6.55v8.51h-8.5c-3.62,0-6.55,2.94-6.55,6.55s2.93,6.55,6.55,6.55h8.5v8.5c0,3.62,2.93,6.55,6.55,6.55s6.55-2.94,6.55-6.55v-8.5h8.51c3.62,0,6.55-2.94,6.55-6.55s-2.93-6.55-6.55-6.55Z"/></svg>