<?xml version="1.0" encoding="UTF-8"?><svg id="Independent" xmlns="http://www.w3.org/2000/svg" viewBox="0 0 1000 1000"><defs><style>.cls-1{fill:#1c1d21;}</style></defs><path class="cls-1" d="M446.74,448.98v-8.51h-8.51c-3.62,0-6.55-2.93-6.55-6.55s2.94-6.56,6.55-6.56h8.51v-8.5c0-3.62,2.94-6.55,6.55-6.55s6.55,2.93,6.55,6.55v8.5h8.5c3.62,0,6.55,2.93,6.55,6.56s-2.94,6.55-6.55,6.55h-8.5v8.51c0,3.62-2.94,6.55-6.55,6.55s-6.55-2.93-6.55-6.55Zm136.6-248.56h8.51v8.51c0,3.62,2.94,6.55,6.55,6.55s6.55-2.93,6.55-6.55v-8.51h8.5c3.62,0,6.55-2.93,6.55-6.55s-2.94-6.55-6.55-6.55h-8.5v-8.5c0-3.62-2.94-6.55-6.55-6.55s-6.55,2.93-6.55,6.55v8.5h-8.51c-3.62,0-6.55,2.93-6.55,6.55s2.94,6.55,6.55,6.55Zm-232.14,60.19c3.62,0,6.56-2.93,6.56-6.55v-5.97c0-3.62-2.94-6.55-6.56-6.55s-6.55,2.93-6.55,6.55v5.97c0,3.62,2.94,6.55,6.55,6.55Zm329.14,29.49v128.76c0,3.62-2.94,6.55-6.55,6.55h-146.59c-3.62,0-6.56-2.93-6.56-6.55v-45.17c0-6.83-5.56-12.39-12.39-12.39h-121.4v191.71c8.33,.17,16.01,4.39,20.61,11.37l27.04,41.01c4.61,7,7.05,15.13,7.05,23.51v185.72h52.16c3.62,0,6.55,2.93,6.55,6.56s-2.94,6.55-6.55,6.55h-58.72c-3.62,0-6.55-2.93-6.55-6.55v-192.28c0-5.81-1.69-11.44-4.89-16.29l-27.04-41.01c-2.27-3.44-6.08-5.49-10.2-5.49h-43.04v6.39c0,6.93,5.64,12.57,12.57,12.57h17.43c4.78,0,9.28,1.87,12.66,5.25,3.38,3.39,5.23,7.89,5.21,12.67l-.07,22.24c0,.11,.03,.21,.03,.31,0,.11-.03,.22-.03,.33l-.03,8.39c-.01,4.44-1.69,8.66-4.72,11.9l-1.07,1.14c-3.99,4.26-7.14,9.12-9.41,14.35-.02,.06-.05,.12-.08,.18-2.65,6.19-4.06,12.89-4.06,19.77v44.43c0,3.62-2.94,6.55-6.56,6.55s-6.55-2.93-6.55-6.55v-26.36h-12.23v47.4c0,4.19,1.63,8.13,4.6,11.1l11.36,11.37c5.44,5.44,8.44,12.68,8.44,20.37v31.25c0,3.62-2.94,6.55-6.55,6.55s-6.55-2.93-6.55-6.55v-31.26c0-4.19-1.63-8.13-4.6-11.1l-11.36-11.36c-5.44-5.44-8.44-12.67-8.44-20.37v-48.52c-7.91-2.73-13.61-10.23-13.61-19.05v-74.3c0-9.1,6.06-16.8,14.35-19.3-2.42-3.91-3.84-8.51-3.84-13.43v-12.95c0-3.62,2.94-6.55,6.55-6.55h7.93V278.84c0-3.62,2.94-6.55,6.55-6.55s6.55,2.93,6.55,6.55v274.16h15.98V193.04c0-2.05-.81-3.98-2.27-5.42-1.48-1.46-3.45-2.26-5.56-2.26h-.32c-2.11,0-4.09,.8-5.56,2.26-1.46,1.44-2.27,3.37-2.27,5.42v33.02c0,3.62-2.94,6.55-6.55,6.55s-6.55-2.93-6.55-6.55v-33.03c0-5.6,2.2-10.84,6.18-14.76,3.95-3.89,9.18-6.03,14.75-6.03h.33c5.56,0,10.8,2.14,14.75,6.03,3.99,3.93,6.18,9.17,6.18,14.76v7.45h121.4c14.06,0,25.5,11.44,25.5,25.5v38.61h121.09c14.06,0,25.5,11.44,25.5,25.5Zm-321.73,396.49v-4.96c0-5.41,.7-10.73,2.02-15.86h-27.86v13.77c0,3.89,3.16,7.05,7.05,7.05h18.79Zm19.33-52.35v-2.12s-45.17,0-45.17,0v20.55h32.85c2.65-5.15,6.03-9.97,10.07-14.29l1.07-1.14c.76-.82,1.18-1.87,1.19-2.99Zm-4.66-36.05h-17.43c-.87,0-1.72-.05-2.57-.13-.42,.08-.85,.13-1.29,.13h-12.17c-3.89,0-7.05,3.16-7.05,7.05v13.77h45.22l.05-16.04c0-1.28-.49-2.48-1.39-3.38-.9-.9-2.09-1.4-3.37-1.4Zm293.95-308.08c0-6.83-5.56-12.39-12.39-12.39h-121.09v28.59c0,3.62-2.94,6.55-6.55,6.55s-6.55-2.93-6.55-6.55v-80.31c0-6.83-5.56-12.39-12.39-12.39h-121.09v134.6h121.09c14.06,0,25.5,11.44,25.5,25.5v38.61h133.48v-122.2h0Zm-140.04,32.29c-3.62,0-6.56,2.93-6.56,6.55v1.73c0,3.62,2.94,6.55,6.56,6.55s6.55-2.93,6.55-6.55v-1.73c0-3.62-2.94-6.55-6.55-6.55Zm-34.82-52.46c1.53,4.71,.28,9.79-3.27,13.25l-8.53,8.31,2.01,11.74c.84,4.88-1.13,9.73-5.14,12.64-4.01,2.91-9.23,3.29-13.61,.98l-10.54-5.54-10.54,5.54c-1.91,1-3.97,1.5-6.03,1.5-2.67,0-5.32-.84-7.59-2.48-4.01-2.91-5.98-7.76-5.14-12.65l2.01-11.74-8.53-8.31c-3.55-3.46-4.8-8.54-3.27-13.25,1.53-4.71,5.53-8.08,10.44-8.8l11.79-1.71,5.27-10.68c2.19-4.44,6.63-7.21,11.59-7.21s9.4,2.76,11.59,7.21h0l5.27,10.68,11.79,1.71c4.9,.71,8.9,4.08,10.43,8.8Zm-12.69,4.12l-11.51-1.67c-4.21-.61-7.85-3.25-9.73-7.07l-5.15-10.43-5.15,10.43c-1.88,3.82-5.52,6.46-9.74,7.07l-11.51,1.67,8.33,8.12c3.05,2.97,4.44,7.25,3.72,11.44l-1.97,11.47,10.3-5.41c1.88-.99,3.95-1.49,6.02-1.49s4.13,.5,6.01,1.49l10.3,5.41-1.97-11.47c-.72-4.19,.67-8.47,3.72-11.44l8.33-8.12Zm157.8,62.48c1.53,4.71,.28,9.79-3.27,13.25l-8.53,8.31,2.01,11.74c.84,4.88-1.13,9.73-5.14,12.64-2.27,1.65-4.92,2.48-7.59,2.48-2.05,0-4.12-.5-6.03-1.5l-10.54-5.54-10.54,5.54c-4.39,2.31-9.6,1.93-13.61-.99-4.01-2.91-5.98-7.76-5.14-12.64l2.01-11.74-8.53-8.31c-3.55-3.46-4.8-8.54-3.27-13.25,1.53-4.71,5.53-8.09,10.44-8.8l11.79-1.71,5.27-10.68c2.19-4.45,6.63-7.21,11.59-7.21s9.4,2.76,11.59,7.21l5.27,10.68,11.79,1.71c4.91,.71,8.91,4.09,10.44,8.8Zm-12.69,4.12l-11.51-1.67c-4.21-.61-7.85-3.26-9.73-7.07l-5.15-10.43-5.15,10.43c-1.88,3.81-5.52,6.46-9.73,7.07l-11.52,1.67,8.33,8.12c3.05,2.97,4.44,7.25,3.72,11.44l-1.97,11.47,10.3-5.41c1.88-.99,3.95-1.49,6.01-1.49s4.13,.5,6.02,1.49l10.3,5.41-1.97-11.47c-.72-4.19,.67-8.47,3.72-11.44l8.33-8.12Zm-92.98,473.98h-5.98c-3.62,0-6.55,2.93-6.55,6.56s2.94,6.55,6.55,6.55h5.98c3.62,0,6.56-2.93,6.56-6.55s-2.94-6.56-6.56-6.56Z"/></svg>