<?xml version="1.0" encoding="UTF-8"?><svg id="Woman_Owned" xmlns="http://www.w3.org/2000/svg" viewBox="0 0 1000 1000"><defs><style>.cls-1{fill:#fff;}.cls-2{fill:#1c1d21;}</style></defs><g><rect class="cls-1" x="296.34" y="390.11" width="258" height="357"/><g><path d="M385.71,440.85c-3.33,0-6.04-2.71-6.04-6.04s2.71-6.04,6.04-6.04h75.52c3.33,0,6.04,2.71,6.04,6.04s-2.71,6.04-6.04,6.04h-75.52Z"/><path d="M340.4,486.16c-3.33,0-6.04-2.71-6.04-6.04s2.71-6.04,6.04-6.04h166.14c3.33,0,6.04,2.71,6.04,6.04s-2.71,6.04-6.04,6.04h-166.14Z"/><path d="M340.4,622.1c-3.33,0-6.04-2.71-6.04-6.04s2.71-6.04,6.04-6.04h60.42c3.33,0,6.04,2.71,6.04,6.04s-2.71,6.04-6.04,6.04h-60.42Z"/><path d="M340.4,531.48h166.14c1.8,0,6.04-1.36,6.04-6.04,0-3.33-2.71-6.04-6.04-6.04h-166.14c-3.33,0-6.04,2.71-6.04,6.04s2.71,6.04,6.04,6.04Z"/><path d="M340.4,576.48h166.14c1.8,0,6.04-1.36,6.04-6.04,0-3.33-2.71-6.04-6.04-6.04h-166.14c-3.33,0-6.04,2.71-6.04,6.04s2.71,6.04,6.04,6.04Z"/><g><path d="M501.38,646.26c0-3.33-2.71-6.04-6.04-6.04h0s-36.77,0-36.77,0c-3.33,0-6.04,2.71-6.04,6.04s2.71,6.04,6.04,6.04h36.85c3.29-.05,5.96-2.74,5.96-6.04Z"/><path d="M597.16,687.04h-39.27V389.5c0-3.33-2.71-6.04-6.04-6.04H295.09c-3.33,0-6.04,2.71-6.04,6.04v333.79c0,19.99,16.26,36.25,36.25,36.25h241.66c19.99,0,36.25-16.26,36.25-36.25v-30.21c0-3.33-2.71-6.04-6.04-6.04Zm-51.35,0h-190.31c-3.33,0-6.04,2.71-6.04,6.04v30.21c0,13.32-10.84,24.17-24.17,24.17s-24.17-10.84-24.17-24.17V395.54h244.68v291.5Zm45.31,36.25c0,13.32-10.84,24.17-24.17,24.17h-213.32l3.94-7.7c2.63-5.13,3.96-10.67,3.96-16.47v-24.17h229.58v24.17Z"/></g></g></g><g><path class="cls-1" d="M462.34,500.11c0-1.56,6-12,6-12,3.15-4.91,6.53-8.21,11-12l3-3-2.47-128.44c0-57.46,46.75-104.22,104.22-104.22,57.46,0,104.22,46.75,104.22,104.22v127.25s1.86,1.58,1.86,1.58c13.22,11.25,20.8,27.6,20.8,44.86v92.13c0,3.33-2.71,6.04-6.04,6.04h-241.66c-3.33,0-6.04-2.71-6.04-6.04v-11.14s5.13-86.25,5.13-99.25Z"/><path d="M460.11,500.11c.54-1.47,6.41-13.48,6.41-13.48,3.15-4.91,7.02-9.32,11.49-13.12l1.87-1.58v-127.26c0-57.46,46.75-104.22,104.22-104.22,57.46,0,104.22,46.75,104.22,104.22v127.25s1.86,1.58,1.86,1.58c13.22,11.25,20.8,27.6,20.8,44.86v92.13c0,3.33-2.71,6.04-6.04,6.04h-241.66c-3.33,0-6.04-2.71-6.04-6.04v-11.14s-1.87-86.25,2.89-99.25Zm54.5,48.46v55.88s138.95,0,138.95,0v-55.88c0-3.33,2.71-6.04,6.04-6.04s6.04,2.71,6.04,6.04v55.88s33.23,0,33.23,0v-86.09c0-25.82-21-46.82-46.82-46.82h-35.49s0,5.29,0,5.29c0,17.91-14.57,32.47-32.47,32.47s-32.47-14.57-32.47-32.47v-5.29s-35.49,0-35.49,0c-18.95,0-36.42,11.83-43.46,29.43l-.96,2.39s-2.1,5.75-2.4,7.75c-3.49,23.07,0,93.34,0,93.34h33.23s0-55.88,0-55.88c0-3.33,2.71-6.04,6.04-6.04s6.04,2.71,6.04,6.04Zm89.87-102.55l-6.4,1.38c-4.59,.99-9.29,1.49-13.99,1.49s-9.41-.5-13.99-1.49l-6.4-1.38v30.8c0,11.24,9.15,20.39,20.39,20.39,11.24,0,20.39-9.15,20.39-20.39v-30.8Zm-15.56-142.74c13.05,17.4,33.83,27.79,55.58,27.79,3.33,0,6.04,2.71,6.04,6.04v45.31c0,23.11-11.77,44.23-31.49,56.49l-2.5,1.55v18.99s35.49,0,35.49,0c5.89,0,11.72,.88,17.32,2.6l6.84,2.11v-119.5c0-50.8-41.33-92.13-92.13-92.13s-92.13,41.33-92.13,92.13v119.53s6.85-2.12,6.85-2.12c5.63-1.74,11.46-2.63,17.32-2.63h35.49s0-18.99,0-18.99l-2.5-1.55c-19.72-12.25-31.49-33.37-31.49-56.49v-45.31c0-3.33,2.71-6.04,6.04-6.04,21.75,0,42.53-10.39,55.58-27.79,1.14-1.51,2.94-2.42,4.83-2.42s3.7,.9,4.83,2.42Zm-4.83,13.33l-3.67,3.54c-12.51,12.08-28.89,19.99-46.11,22.29l-4.59,.61v39.36c0,29.98,24.39,54.37,54.37,54.37s54.37-24.39,54.37-54.37v-39.36s-4.59-.61-4.59-.61c-17.22-2.29-33.6-10.21-46.11-22.29l-3.67-3.54Z"/></g><path class="cls-2" d="M386.1,320.53h8.51v8.51c0,3.62,2.94,6.55,6.55,6.55s6.55-2.93,6.55-6.55v-8.51h8.5c3.62,0,6.55-2.93,6.55-6.55s-2.94-6.55-6.55-6.55h-8.5v-8.5c0-3.62-2.94-6.55-6.55-6.55s-6.55,2.93-6.55,6.55v8.5h-8.51c-3.62,0-6.55,2.93-6.55,6.55s2.94,6.55,6.55,6.55Z"/><path class="cls-2" d="M659.1,685.53h8.51v8.51c0,3.62,2.94,6.55,6.55,6.55s6.55-2.93,6.55-6.55v-8.51h8.5c3.62,0,6.55-2.93,6.55-6.55s-2.94-6.55-6.55-6.55h-8.5v-8.5c0-3.62-2.94-6.55-6.55-6.55s-6.55,2.93-6.55,6.55v8.5h-8.51c-3.62,0-6.55,2.93-6.55,6.55s2.94,6.55,6.55,6.55Z"/></svg>